<svg xmlns="http://www.w3.org/2000/svg" viewBox="0 0 240 240">
  <style>
    :root { color: #1a1a17; }
    @media (prefers-color-scheme: dark) { :root { color: #f5f3ec; } }
  </style>
  <defs><path id="ap-circ-top" d="M 120,120 m -94,0 a 94,94 0 1,1 188,0"></path><path id="ap-circ-bot" d="M 120,120 m -94,0 a 94,94 0 1,0 188,0" transform="rotate(0 120 120)"></path></defs><circle cx="120" cy="120" r="110" fill="none" stroke="currentColor" stroke-width="1.75"></circle><circle cx="120" cy="120" r="100" fill="none" stroke="currentColor" stroke-width="0.6"></circle><text x="120" y="138" text-anchor="middle" font-family="&quot;Source Serif 4&quot;, Georgia, serif" font-weight="600" font-size="64" letter-spacing="-2" fill="currentColor">p7l</text><g transform="translate(120 75)" fill="currentColor"><path d="M0 0 C -10 -14, 8 -22, 14 -12 C 18 -4, 6 6, 0 0 Z"></path><path d="M0 0 L 10 -10" stroke="currentColor" stroke-width="1.5" stroke-linecap="round" fill="none"></path></g><circle cx="120" cy="16" r="2" fill="currentColor"></circle><circle cx="120" cy="224" r="2" fill="currentColor"></circle><circle cx="16" cy="120" r="2" fill="currentColor"></circle><circle cx="224" cy="120" r="2" fill="currentColor"></circle>
</svg>