<svg xmlns="http://www.w3.org/2000/svg" width="400" height="200" viewBox="0 0 400 200">
  <!-- Succulent / rosette viewed from above -->
  <g stroke="#2a2a2a" fill="none" stroke-width="1.5" stroke-linecap="round" stroke-linejoin="round">
    <!-- Outer ring of petals (8 petals) -->
    <path d="M200 100 C188 76 180 52 188 32 C196 20 204 20 212 32 C220 52 212 76 200 100"/>
    <path d="M200 100 C224 88 248 80 268 88 C280 96 280 104 268 112 C248 120 224 112 200 100"/>
    <path d="M200 100 C212 124 220 148 212 168 C204 180 196 180 188 168 C180 148 188 124 200 100"/>
    <path d="M200 100 C176 112 152 120 132 112 C120 104 120 96 132 88 C152 80 176 88 200 100"/>
    <!-- Inner ring (4 petals, diagonal) -->
    <path d="M200 100 C185 82 178 62 186 48 C194 40 206 46 208 62 C210 78 204 92 200 100"/>
    <path d="M200 100 C218 85 238 78 252 86 C260 94 256 106 244 110 C230 114 214 108 200 100"/>
    <path d="M200 100 C215 118 222 138 214 152 C206 160 194 154 192 138 C190 122 196 108 200 100"/>
    <path d="M200 100 C182 115 162 122 148 114 C140 106 144 94 156 90 C170 86 186 92 200 100"/>
    <!-- Center -->
    <circle cx="200" cy="100" r="10"/>
  </g>
</svg>
