<svg xmlns="http://www.w3.org/2000/svg" width="400" height="200" viewBox="0 0 400 200">
  <!-- Corner botanical flourish — mirrored sprigs -->
  <g stroke="#2a2a2a" fill="none" stroke-width="1.5" stroke-linecap="round" stroke-linejoin="round">
    <!-- Horizontal dividing line with gap -->
    <path d="M30 100 L170 100"/>
    <path d="M230 100 L370 100"/>
    <!-- Left sprig: stem going up-left -->
    <path d="M170 100 C155 88 138 72 125 55"/>
    <!-- Leaves on left sprig -->
    <path d="M125 55 C114 42 108 26 115 16 C122 10 130 16 130 28 C130 40 126 50 125 55"/>
    <path d="M148 80 C136 72 128 58 134 46 C140 40 148 44 150 54 C152 64 150 74 148 80"/>
    <!-- Left sprig: stem going down-left -->
    <path d="M170 100 C155 112 138 128 125 145"/>
    <path d="M125 145 C114 158 108 174 115 184 C122 190 130 184 130 172 C130 160 126 150 125 145"/>
    <path d="M148 120 C136 128 128 142 134 154 C140 160 148 156 150 146 C152 136 150 126 148 120"/>
    <!-- Right sprig: mirror -->
    <path d="M230 100 C245 88 262 72 275 55"/>
    <path d="M275 55 C286 42 292 26 285 16 C278 10 270 16 270 28 C270 40 274 50 275 55"/>
    <path d="M252 80 C264 72 272 58 266 46 C260 40 252 44 250 54 C248 64 250 74 252 80"/>
    <path d="M230 100 C245 112 262 128 275 145"/>
    <path d="M275 145 C286 158 292 174 285 184 C278 190 270 184 270 172 C270 160 274 150 275 145"/>
    <path d="M252 120 C264 128 272 142 266 154 C260 160 252 156 250 146 C248 136 250 126 252 120"/>
    <!-- Center diamond -->
    <path d="M200 88 L212 100 L200 112 L188 100 Z"/>
  </g>
</svg>
