<svg xmlns="http://www.w3.org/2000/svg" width="400" height="200" viewBox="0 0 400 200">
  <!-- Single large leaf with veins -->
  <g stroke="#2a2a2a" fill="none" stroke-width="1.5" stroke-linecap="round" stroke-linejoin="round">
    <!-- Leaf outline -->
    <path d="M200 180 C180 140 140 100 160 60 C175 30 200 20 200 20 C200 20 225 30 240 60 C260 100 220 140 200 180"/>
    <!-- Midrib -->
    <path d="M200 175 L200 25"/>
    <!-- Left veins -->
    <path d="M200 80 C185 75 170 65 165 55"/>
    <path d="M200 110 C182 102 165 92 158 78"/>
    <path d="M200 140 C180 130 162 118 156 102"/>
    <!-- Right veins -->
    <path d="M200 80 C215 75 230 65 235 55"/>
    <path d="M200 110 C218 102 235 92 242 78"/>
    <path d="M200 140 C220 130 238 118 244 102"/>
  </g>
</svg>
